<svg xmlns="http://www.w3.org/2000/svg" width="67.96" height="71.485" viewBox="0 0 67.96 71.485">
  <g id="Groupe_21480" data-name="Groupe 21480" transform="translate(-748.715 -403.665)">
    <g id="Groupe_21478" data-name="Groupe 21478">
      <path id="Tracé_19233" data-name="Tracé 19233" d="M786.3,440.9v29.8c0,2.2-1.4,3.8-3.3,3.8a3.542,3.542,0,0,1-3.5-3.5V440.9a18.027,18.027,0,0,0-11.1-17,15.351,15.351,0,0,0-6.5-1.1c1.6,1.7,3,3.2,4.5,4.7a3.8,3.8,0,0,1,1,3.5,3.249,3.249,0,0,1-5.5,1.9,23.915,23.915,0,0,1-2.2-2.3c-3-3.2-5.9-6.3-8.9-9.5a2.562,2.562,0,0,1,0-3.9c3.6-3.8,7.2-7.6,10.7-11.4a3.611,3.611,0,0,1,3.5-1.2,3.662,3.662,0,0,1,1.7,6l-3.9,4.2-.7.7c9.1.2,16.1,4.2,21,12.3A27.7,27.7,0,0,1,786.3,440.9Z"/>
    </g>
    <g id="Groupe_21479" data-name="Groupe 21479">
      <path id="Tracé_19234" data-name="Tracé 19234" d="M761.5,422.7c1.6,1.7,3,3.2,4.5,4.7a3.8,3.8,0,0,1,1,3.5,3.249,3.249,0,0,1-5.5,1.9,23.915,23.915,0,0,1-2.2-2.3c-3-3.2-5.9-6.3-8.9-9.5a2.562,2.562,0,0,1,0-3.9c3.6-3.8,7.2-7.6,10.7-11.4a3.611,3.611,0,0,1,3.5-1.2,3.662,3.662,0,0,1,1.7,6l-3.9,4.2-.7.7c9.1.2,16.1,4.2,21,12.3,4.9-8,11.8-12.1,20.9-12.3a1.38,1.38,0,0,0-.3-.4c-1.3-1.4-2.6-2.8-4-4.2a3.661,3.661,0,0,1-.2-5.2,3.342,3.342,0,0,1,5,.1c3.7,3.9,7.3,7.8,11,11.6a2.376,2.376,0,0,1,0,3.6c-3.7,3.9-7.4,7.9-11.1,11.8a3.194,3.194,0,0,1-4.8.1,3.954,3.954,0,0,1,0-5.2l3.9-4.2c.2-.2.3-.4.6-.7a14.456,14.456,0,0,0-4.7.5c-7.6,2.1-12.8,9.2-12.8,17.6v29.8c0,2.2-1.4,3.8-3.3,3.8a3.542,3.542,0,0,1-3.5-3.5V440.8a18.027,18.027,0,0,0-11.1-17A20.574,20.574,0,0,0,761.5,422.7Z" fill="none" stroke="#000" stroke-miterlimit="10" stroke-width="1.5"/>
    </g>
  </g>
</svg>
